<?xml version="1.0" encoding="UTF-8" standalone="no"?>
<svg
   version="1.1"
   id="svg1"
   width="1000"
   height="1000"
   viewBox="0 0 1000 1000"
   xmlns="http://www.w3.org/2000/svg"
   xmlns:svg="http://www.w3.org/2000/svg">
   <rect
      style="fill:#2066e3;fill-opacity:1;"
      id="background"
      width="1000"
      height="1000"
      x="0"
      y="0" />
   <g
      id="g1"
      transform="matrix(1.1702279,0,0,1.1702279,-99.027859,-26.435732)"
      style="fill:#ffffff;fill-opacity:1;">
      <g
      id="g2">
      <path
         style="fill:#ffffff;fill-opacity:1;"
         id="path-5"
         d="m 203.16907,336.74138 h -42.90912 l 58.49922,-59.49281 H 345.1535 l -19.38604,59.49281 h -50.19195 v 42.21107 l -72.40644,74.56271 z" />
      <path
         style="fill:#ffffff;fill-opacity:1;"
         id="path-4"
         d="m 206.45665,466.18732 c 3.70992,-2.72086 10.92462,-6.30582 14.45905,-6.30582 1.87856,0 2.07905,-0.34293 2.0958,-3.58516 0.0673,-13.02556 14.21107,-21.04758 23.1977,-13.15722 5.2072,4.57199 3.30499,12.80575 -2.95849,12.80575 -4.73511,0 -6.82421,-5.18388 -3.3545,-8.32392 1.30347,-1.17963 1.4564,-1.70253 0.63268,-2.16326 -1.95528,-1.09365 -5.70276,0.23374 -7.8441,2.77866 -6.29854,7.48544 2.76892,18.28471 12.62212,15.03287 3.11217,-1.02709 8.33664,-5.39942 9.0364,-7.56244 0.32484,-1.00413 0.83708,-0.91424 2.87018,0.50363 2.70187,1.88428 8.00134,3.90896 8.61784,3.29244 0.82046,-0.82043 -0.78937,-6.307 -2.48191,-8.45875 l -1.77771,-2.25996 3.08284,-2.54116 c 8.09111,-6.66938 7.50713,-18.19714 -1.10248,-21.76336 -4.55968,-1.88868 -10.41994,1.16009 -11.47649,5.9706 -0.6829,3.10925 0.5319,4.78385 2.09982,2.89459 1.28088,-1.54338 6.01508,-1.72684 7.4531,-0.28882 1.86376,1.86377 1.209,6.30266 -1.21042,8.20575 -7.91668,6.22729 -17.38454,-5.98934 -12.32759,-15.90663 2.62904,-5.15579 7.08504,-7.94829 13.31631,-8.34507 5.30487,-0.33781 5.45183,-0.40986 5.45183,-2.67355 0,-4.70003 6.32812,-16.87918 8.71688,-16.87918 v 71.14108 c 0,0 -17.88154,0.0532 -72.40644,0 z" />
      <path
         style="fill:#ffffff;fill-opacity:1;"
         id="path-3"
         d="m 201.85504,279.28725 c -3.10652,2.27834 -9.14775,5.28018 -12.10731,5.28018 -1.57301,0 -1.74089,0.28715 -1.75492,3.00204 -0.0563,10.90697 -11.89964,17.62424 -19.42461,11.01721 -4.36025,-3.82835 -2.76742,-10.72288 2.4773,-10.72288 3.96494,0 5.71425,4.3407 2.80888,6.97 -1.09144,0.9878 -1.21951,1.42565 -0.52978,1.81142 1.63728,0.91578 4.77523,-0.19568 6.56827,-2.32671 5.27409,-6.26794 -2.31856,-15.31073 -10.56914,-12.58777 -2.60597,0.86003 -6.98069,4.52119 -7.56663,6.33242 -0.27201,0.8408 -0.70094,0.76551 -2.40336,-0.42174 -2.2624,-1.5778 -6.69993,-3.27316 -7.21615,-2.75692 -0.68702,0.68701 0.66098,5.28118 2.07823,7.08292 l 1.48858,1.89241 -2.58143,2.12783 c -6.7751,5.58461 -6.28609,15.23741 0.92317,18.22359 3.81804,1.58146 8.72513,-0.97141 9.60984,-4.99949 0.57184,-2.60352 -0.44539,-4.00578 -1.75828,-2.4238 -1.07254,1.29236 -5.03673,1.44595 -6.24087,0.24204 -1.56062,-1.5606 -1.01235,-5.27752 1.01355,-6.87106 6.62904,-5.21444 14.55697,5.01515 10.32251,13.3194 -2.20143,4.31721 -5.93264,6.65554 -11.15041,6.98774 -4.44204,0.28289 -4.56509,0.3432 -4.56509,2.23871 0,3.93558 -5.29887,14.1338 -7.2991,14.1338 v -59.57006 c 0,0 14.97313,-0.0444 60.62959,0 z" />
   </g>
   <path
      d="m 346.78319,385.72379 q 6.32373,0 11.38272,2.9894 5.05899,2.87443 7.93341,7.93341 2.98941,5.05899 2.98941,11.38273 v 6.43871 q 0,8.5083 -4.59908,14.25715 -4.59908,5.74885 -13.22236,7.70345 l 5.17397,7.24355 16.21175,23.45531 h -11.72765 l -20.58088,-29.77904 h -20.58089 v 29.77904 h -9.88802 v -81.40371 z m -1.26475,42.08158 q 6.32374,0 10.003,-3.79424 3.67926,-3.79424 3.67926,-10.34793 v -4.36913 q 0,-6.55369 -3.67926,-10.23295 -3.67926,-3.79424 -10.11797,-3.79424 h -25.63988 v 32.53849 z m 63.00733,-42.08158 h 10.57788 l 32.9984,81.40371 h -10.69286 l -8.16337,-20.69586 h -38.74724 l -8.39332,20.69586 h -10.69287 z m 21.38572,51.16476 -16.09678,-39.78204 -16.09678,39.78204 z m 31.50363,-51.16476 h 9.88803 l 40.12697,57.37352 5.17396,8.27834 -0.34493,-13.68226 v -51.9696 h 9.77305 v 81.40371 h -9.77305 l -40.12697,-57.37352 -5.28894,-8.27834 0.34493,13.56728 v 52.08458 h -9.77305 z m 104.85896,82.89841 q -12.30254,0 -19.54609,-5.51889 -7.12858,-5.63388 -8.04839,-15.75185 -0.11498,-0.91982 -0.11498,-2.9894 h 10.003 q 0,7.24355 4.82903,10.92281 4.82904,3.56429 13.56729,3.56429 h 6.78364 q 8.04839,0 12.53249,-3.44931 4.59908,-3.56429 4.59908,-9.19816 0,-4.71406 -2.06958,-7.47351 -1.95461,-2.87442 -5.40392,-4.25414 -3.44931,-1.49471 -9.19816,-2.64448 l -11.26775,-2.41451 q -7.81843,-1.60968 -12.53249,-3.44931 -4.71406,-1.95461 -7.93341,-6.43871 -3.10438,-4.48411 -3.10438,-12.64747 0,-10.34793 7.12857,-16.44171 7.24355,-6.20876 20.23595,-6.20876 h 5.5189 q 12.07258,0 19.08618,5.51889 7.0136,5.5189 8.04839,15.5219 0.11498,1.03479 0.11498,3.21935 h -10.003 q 0,-7.12857 -4.59908,-10.80783 -4.59908,-3.79424 -13.10738,-3.79424 h -5.40392 q -8.16336,0 -12.64747,3.44931 -4.36912,3.4493 -4.36912,9.31313 0,4.25415 1.83963,6.78364 1.95461,2.5295 5.05899,3.90922 3.21935,1.26475 8.27834,2.41452 l 11.26775,2.52949 q 8.50829,1.95461 13.45231,3.90922 4.94401,1.95461 8.27834,6.66867 3.33433,4.59908 3.33433,12.9924 0,6.66866 -3.33433,11.84263 -3.21936,5.17396 -9.54309,8.04839 -6.20876,2.87442 -14.83203,2.87442 z m 82.89843,-82.89841 q 6.55369,0 11.84263,2.9894 5.28894,2.9894 8.27834,8.27834 3.10438,5.28895 3.10438,11.72766 v 7.93341 q 0,6.55369 -3.10438,11.95761 -2.9894,5.40392 -8.27834,8.5083 -5.28894,3.10438 -11.72766,3.10438 l -26.55968,0.11497 v 26.78964 h -9.88802 v -81.40371 z m -1.0348,44.84103 q 6.66867,0 10.46291,-3.90922 3.90922,-4.0242 3.90922,-10.80784 v -5.86383 q 0,-6.78364 -3.90922,-10.69286 -3.79424,-4.02419 -10.46291,-4.02419 H 622.7278 v 35.41291 z m 63.35234,38.05738 q -8.27834,0 -14.94701,-3.79424 -6.66867,-3.79424 -10.46291,-10.4629 -3.79424,-6.66867 -3.79424,-14.94701 v -25.98481 q 0,-8.27834 3.79424,-14.947 3.79424,-6.66867 10.46291,-10.46291 6.66867,-3.79424 14.94701,-3.79424 h 10.34793 q 8.39332,0 15.06199,3.79424 6.66866,3.79424 10.34793,10.46291 3.79424,6.66866 3.79424,14.947 v 25.98481 q 0,8.27834 -3.79424,14.94701 -3.79424,6.66866 -10.46291,10.4629 -6.66867,3.79424 -14.94701,3.79424 z m -19.20116,-29.66406 q 0,8.9682 5.5189,14.4871 5.51889,5.40392 14.4871,5.40392 h 8.73825 q 8.96821,0 14.4871,-5.40392 5.5189,-5.5189 5.5189,-14.4871 v -25.17996 q 0,-8.96821 -5.5189,-14.37213 -5.40392,-5.40392 -14.4871,-5.40392 h -8.73825 q -8.96821,0 -14.4871,5.40392 -5.5189,5.40392 -5.5189,14.37213 z m 110.26298,-53.23435 q 6.32373,0 11.38272,2.9894 5.05899,2.87443 7.93341,7.93341 2.9894,5.05899 2.9894,11.38273 v 6.43871 q 0,8.5083 -4.59908,14.25715 -4.59908,5.74885 -13.22235,7.70345 l 5.17396,7.24355 16.21176,23.45531 h -11.72765 l -20.58089,-29.77904 h -20.58088 v 29.77904 h -9.88802 v -81.40371 z m -1.26475,42.08158 q 6.32373,0 10.003,-3.79424 3.67926,-3.79424 3.67926,-10.34793 v -4.36913 q 0,-6.55369 -3.67926,-10.23295 -3.67927,-3.79424 -10.11798,-3.79424 h -25.63987 v 32.53849 z m 55.41887,-32.42351 h -27.70945 v -9.65807 h 65.30693 v 9.65807 h -27.70945 v 71.74564 h -9.88803 z"
      id="path-2"
      style="fill:#ffffff;fill-opacity:1;" />
   <path
      d="m 321.98938,503.99968 h 14.99548 l 60.85373,87.00863 7.84647,12.55435 -0.5231,-20.74955 v -78.81343 h 14.82111 v 123.45113 h -14.82111 l -60.85373,-87.00864 -8.02084,-12.55435 0.5231,20.57519 v 78.9878 h -14.82111 z m 153.44211,125.71788 q -17.26223,0 -27.02673,-9.76449 -9.76449,-9.7645 -9.76449,-26.85237 v -19.87772 q 0,-17.26223 9.76449,-26.85236 9.7645,-9.7645 27.02673,-9.7645 h 5.40535 q 17.26223,0 26.85236,9.7645 9.7645,9.59013 9.7645,26.85236 v 16.73914 h -64.34106 v 3.31295 q 0,10.63633 5.92845,16.73914 5.92844,5.92844 16.3904,5.92844 h 5.40535 q 8.02083,0 13.42618,-3.66169 5.40535,-3.66168 7.49774,-9.76449 h 14.99547 q -2.44112,12.90308 -11.85688,20.05209 -9.41577,7.149 -24.06251,7.149 z m 27.7242,-52.65853 v -4.35915 q 0,-10.63632 -5.92845,-16.73913 -5.92844,-6.10281 -16.3904,-6.10281 h -5.40535 q -10.46196,0 -16.3904,6.10281 -5.92845,6.10281 -5.92845,16.73913 v 4.35915 z m 92.06546,2.61549 -3.83605,-10.46196 -3.83605,10.46196 -19.00589,47.77629 h -14.29802 l -31.90897,-88.7523 h 15.51857 l 16.73914,47.95065 7.149,22.31885 22.31885,-56.14585 -5.92844,-14.12365 h 15.16984 l 27.89856,70.2695 7.32337,-22.49321 16.3904,-47.77629 h 15.51858 l -31.56025,88.7523 h -14.12365 z m 104.79397,50.04304 q -15.69294,0 -24.23688,-7.49773 -8.36956,-7.49774 -8.54393,-20.05209 h 14.47238 q 0.17436,6.80027 4.53351,10.63632 4.53352,3.66169 14.64675,3.66169 h 7.6721 q 19.18026,0 19.18026,-12.20562 0,-6.62591 -4.18478,-9.59013 -4.18479,-2.96422 -13.07745,-4.35915 l -14.82111,-2.96422 q -13.25182,-2.44113 -20.22646,-7.84647 -6.80027,-5.57972 -6.80027,-18.13407 0,-11.68252 8.36957,-18.13406 8.54393,-6.62591 24.0625,-6.62591 h 7.84647 q 15.34421,0 23.71378,7.49774 8.36957,7.32337 8.36957,19.18026 h -14.64675 q 0,-13.60055 -18.30843,-13.60055 h -6.10281 q -18.65716,0 -18.65716,12.03125 0,6.10281 3.83605,9.06704 4.01042,2.78985 12.20562,4.18478 l 15.34421,2.96422 q 13.25182,2.26676 20.40082,8.02084 7.32337,5.57971 7.32337,18.30843 0,12.03125 -8.54393,18.83153 -8.54393,6.6259 -24.5856,6.6259 z"
      id="path-1"
      style="fill:#ffffff;fill-opacity:1;" />
   </g>
</svg>
